<svg width="176" height="41" viewBox="0 0 176 41" fill="none" xmlns="http://www.w3.org/2000/svg">
<g clip-path="url(#clip0_379_43)">
<path d="M26.6225 13.6256C24.2608 12.2769 23.4145 9.24182 24.7945 6.87764C26.1581 4.54161 29.2266 3.70458 31.6168 5.06953C33.9786 6.41824 34.8248 9.45331 33.4448 11.8175C32.0648 14.1817 29.0127 14.9906 26.6225 13.6256Z" fill="white" fill-opacity="0.8"/>
<path d="M64.058 21.9176C68.0173 15.1347 65.6361 6.34458 58.7784 2.42845C51.8923 -1.50393 43.0338 0.867624 39.0745 7.65056L28.5274 25.7196C28.5274 25.7196 55.1209 37.2285 64.058 21.9176Z" fill="white" fill-opacity="0.8"/>
<path d="M5.02712 20.2392C2.26712 24.9675 3.89833 31.0777 8.67878 33.8076C13.4592 36.5375 19.6083 34.9079 22.3683 30.1795L29.7118 17.5987C29.7403 17.615 11.2371 9.60038 5.02712 20.2392ZM12.3752 27.475C11.1232 26.76 10.6902 25.1618 11.4131 23.9235C12.1359 22.6851 13.7517 22.2568 15.0038 22.9718C16.2558 23.6868 16.6887 25.285 15.9659 26.5234C15.2715 27.778 13.6557 28.2062 12.3752 27.475Z" fill="white" fill-opacity="0.8"/>
<path d="M77.3128 24.6771C76.3149 24.1219 75.504 23.3816 74.9427 22.3945C74.3813 21.4074 74.0695 20.3587 74.0695 19.1248C74.0695 17.891 74.3813 16.8422 74.9427 15.8551C75.504 14.868 76.3149 14.1277 77.3128 13.5725C78.3108 13.0173 79.4335 12.7705 80.7433 12.7705C81.7412 12.7705 82.6768 12.9556 83.55 13.3257C84.4232 13.6959 85.1093 14.1894 85.6707 14.868L84.1737 16.287C83.3005 15.2999 82.1778 14.868 80.868 14.868C79.9948 14.868 79.2463 15.0531 78.5602 15.4233C77.8742 15.7934 77.3752 16.287 77.0009 16.9656C76.6267 17.6442 76.4396 18.3845 76.4396 19.1865C76.4396 19.9885 76.6267 20.7905 77.0009 21.4074C77.3752 22.0861 77.9365 22.5796 78.5602 22.9497C79.2463 23.3199 79.9948 23.505 80.868 23.505C82.1778 23.505 83.3005 23.0114 84.1737 22.0244L85.6707 23.4433C85.1093 24.1219 84.3609 24.6154 83.55 24.9856C82.6768 25.3557 81.7412 25.5408 80.7433 25.5408C79.4958 25.5408 78.3108 25.2324 77.3128 24.6771Z" fill="white" fill-opacity="0.8"/>
<path d="M90.0367 24.6771C89.0387 24.1219 88.2279 23.3816 87.6042 22.3945C87.0428 21.4074 86.731 20.3587 86.731 19.1248C86.731 17.9527 87.0428 16.8422 87.6042 15.8551C88.1655 14.868 88.9763 14.1277 90.0367 13.5725C91.0346 13.0173 92.2197 12.7705 93.4671 12.7705C94.7146 12.7705 95.8996 13.0173 96.8976 13.5725C97.8955 14.1277 98.7064 14.868 99.3301 15.8551C99.8915 16.8422 100.203 17.891 100.203 19.1248C100.203 20.3587 99.8915 21.4074 99.3301 22.3945C98.7688 23.3816 97.9579 24.1219 96.8976 24.6771C95.8996 25.2324 94.7146 25.4791 93.4671 25.4791C92.1573 25.5408 91.0346 25.2324 90.0367 24.6771ZM95.7125 22.9497C96.3986 22.5796 96.8976 22.086 97.2718 21.4074C97.6461 20.7288 97.8332 19.9885 97.8332 19.1865C97.8332 18.3845 97.6461 17.6442 97.2718 16.9656C96.8976 16.287 96.3986 15.7934 95.7125 15.4233C95.0264 15.0531 94.278 14.868 93.4671 14.868C92.6563 14.868 91.9078 15.0531 91.2217 15.4233C90.5356 15.7934 90.0367 16.287 89.6624 16.9656C89.2882 17.6442 89.1011 18.3845 89.1011 19.1865C89.1011 19.9885 89.2882 20.7288 89.6624 21.4074C90.0367 22.086 90.5356 22.5796 91.2217 22.9497C91.9078 23.3199 92.6563 23.505 93.4671 23.505C94.278 23.505 95.0264 23.3199 95.7125 22.9497Z" fill="white" fill-opacity="0.8"/>
<path d="M114.05 25.3559V17.2125L109.933 23.9986H108.873L104.756 17.3359V25.4176H102.573V13.0791H104.507L109.434 21.2225L114.299 13.0791H116.233V25.4176H114.05V25.3559Z" fill="white" fill-opacity="0.8"/>
<path d="M127.584 13.5734C128.395 13.9436 129.019 14.4371 129.456 15.1157C129.892 15.7944 130.079 16.5347 130.079 17.46C130.079 18.3237 129.892 19.1257 129.456 19.8044C129.019 20.483 128.395 20.9765 127.584 21.3467C126.774 21.7168 125.838 21.9019 124.778 21.9019H121.971V25.48H119.663V13.1416H124.778C125.838 13.0182 126.774 13.2033 127.584 13.5734ZM126.898 19.2491C127.397 18.8173 127.709 18.2003 127.709 17.46C127.709 16.658 127.46 16.0411 126.898 15.671C126.399 15.2391 125.589 15.054 124.591 15.054H121.909V19.9277H124.591C125.651 19.866 126.399 19.6193 126.898 19.2491Z" fill="white" fill-opacity="0.8"/>
<path d="M139.81 22.5192H133.573L132.325 25.357H129.955L135.569 13.0186H137.876L143.49 25.357H141.057L139.81 22.5192ZM139.061 20.7301L136.691 15.3629L134.384 20.7301H139.061Z" fill="white" fill-opacity="0.8"/>
<path d="M156.151 13.0186V25.357H154.217L147.356 17.0286V25.357H145.048V13.0186H146.982L153.843 21.347V13.0186H156.151Z" fill="white" fill-opacity="0.8"/>
<path d="M164.883 20.9761V25.2945H162.575V20.9761L157.71 12.9561H160.205L163.823 18.9402L167.503 12.9561H169.811L164.883 20.9761Z" fill="white" fill-opacity="0.8"/>
</g>
<defs>
<clipPath id="clip0_379_43">
<rect width="176" height="41" fill="white"/>
</clipPath>
</defs>
</svg>
